<svg xmlns="http://www.w3.org/2000/svg" width="620" height="620" viewBox="0 0 620 620">
<rect width="100%" height="100%" rx="28" fill="#0d1117"/>
<text x="310" y="42" text-anchor="middle" fill="#f0f6fc" font-family="Arial, sans-serif" font-size="24" font-weight="700">Palash • Skill Radar</text>
<text x="310" y="68" text-anchor="middle" fill="#8b949e" font-family="Arial, sans-serif" font-size="13">A practical snapshot of my current toolkit</text>

<polygon points="310.0,258.8 346.2,273.8 361.2,310.0 346.2,346.2 310.0,361.2 273.8,346.2 258.8,310.0 273.8,273.8" fill="none" stroke="#30363d" stroke-width="1"/>
<polygon points="310.0,207.5 382.5,237.5 412.5,310.0 382.5,382.5 310.0,412.5 237.5,382.5 207.5,310.0 237.5,237.5" fill="none" stroke="#30363d" stroke-width="1"/>
<polygon points="310.0,156.2 418.7,201.3 463.8,310.0 418.7,418.7 310.0,463.8 201.3,418.7 156.2,310.0 201.3,201.3" fill="none" stroke="#30363d" stroke-width="1"/>
<polygon points="310.0,105.0 455.0,165.0 515.0,310.0 455.0,455.0 310.0,515.0 165.0,455.0 105.0,310.0 165.0,165.0" fill="none" stroke="#30363d" stroke-width="1"/>
<line x1="310.0" y1="310.0" x2="310.0" y2="105.0" stroke="#30363d" stroke-width="1"/>
<line x1="310.0" y1="310.0" x2="455.0" y2="165.0" stroke="#30363d" stroke-width="1"/>
<line x1="310.0" y1="310.0" x2="515.0" y2="310.0" stroke="#30363d" stroke-width="1"/>
<line x1="310.0" y1="310.0" x2="455.0" y2="455.0" stroke="#30363d" stroke-width="1"/>
<line x1="310.0" y1="310.0" x2="310.0" y2="515.0" stroke="#30363d" stroke-width="1"/>
<line x1="310.0" y1="310.0" x2="165.0" y2="455.0" stroke="#30363d" stroke-width="1"/>
<line x1="310.0" y1="310.0" x2="105.0" y2="310.0" stroke="#30363d" stroke-width="1"/>
<line x1="310.0" y1="310.0" x2="165.0" y2="165.0" stroke="#30363d" stroke-width="1"/>
<polygon points="310.0,121.4 440.5,179.5 478.1,310.0 426.0,426.0 310.0,478.1 182.4,437.6 154.2,310.0 196.9,196.9" fill="#39d353" fill-opacity="0.20" stroke="#39d353" stroke-width="3"/>
<circle cx="310.0" cy="121.4" r="5" fill="#39d353"/>
<text x="310.0" y="57.0" text-anchor="middle" fill="#c9d1d9" font-family="Arial, sans-serif" font-size="14">Python</text>
<text x="310.0" y="103.4" text-anchor="middle" fill="#39d353" font-family="Arial, sans-serif" font-size="11" font-weight="700">92</text>
<circle cx="440.5" cy="179.5" r="5" fill="#39d353"/>
<text x="488.9" y="131.1" text-anchor="start" fill="#c9d1d9" font-family="Arial, sans-serif" font-size="14">Data Analytics</text>
<text x="453.2" y="166.8" text-anchor="middle" fill="#39d353" font-family="Arial, sans-serif" font-size="11" font-weight="700">90</text>
<circle cx="478.1" cy="310.0" r="5" fill="#39d353"/>
<text x="563.0" y="310.0" text-anchor="start" fill="#c9d1d9" font-family="Arial, sans-serif" font-size="14">SQL</text>
<text x="496.1" y="310.0" text-anchor="middle" fill="#39d353" font-family="Arial, sans-serif" font-size="11" font-weight="700">82</text>
<circle cx="426.0" cy="426.0" r="5" fill="#39d353"/>
<text x="488.9" y="488.9" text-anchor="start" fill="#c9d1d9" font-family="Arial, sans-serif" font-size="14">Machine Learning</text>
<text x="438.7" y="438.7" text-anchor="middle" fill="#39d353" font-family="Arial, sans-serif" font-size="11" font-weight="700">80</text>
<circle cx="310.0" cy="478.1" r="5" fill="#39d353"/>
<text x="310.0" y="563.0" text-anchor="middle" fill="#c9d1d9" font-family="Arial, sans-serif" font-size="14">Streamlit</text>
<text x="310.0" y="496.1" text-anchor="middle" fill="#39d353" font-family="Arial, sans-serif" font-size="11" font-weight="700">82</text>
<circle cx="182.4" cy="437.6" r="5" fill="#39d353"/>
<text x="131.1" y="488.9" text-anchor="end" fill="#c9d1d9" font-family="Arial, sans-serif" font-size="14">Visualization</text>
<text x="169.7" y="450.3" text-anchor="middle" fill="#39d353" font-family="Arial, sans-serif" font-size="11" font-weight="700">88</text>
<circle cx="154.2" cy="310.0" r="5" fill="#39d353"/>
<text x="57.0" y="310.0" text-anchor="end" fill="#c9d1d9" font-family="Arial, sans-serif" font-size="14">AI / APIs</text>
<text x="136.2" y="310.0" text-anchor="middle" fill="#39d353" font-family="Arial, sans-serif" font-size="11" font-weight="700">76</text>
<circle cx="196.9" cy="196.9" r="5" fill="#39d353"/>
<text x="131.1" y="131.1" text-anchor="end" fill="#c9d1d9" font-family="Arial, sans-serif" font-size="14">Git / GitHub</text>
<text x="184.2" y="184.2" text-anchor="middle" fill="#39d353" font-family="Arial, sans-serif" font-size="11" font-weight="700">78</text>
</svg>